<svg width="25" height="25" viewBox="0 0 25 25" fill="none" xmlns="http://www.w3.org/2000/svg">
<path d="M23.1303 25.0003H1.86966L0 23.1393V20.5102L0 19.71H9.83205L10.0231 20.2062L10.3688 21.0459H14.6216L14.9672 20.2062L15.1582 19.71H25V20.5102V23.1393L23.1303 25.0003ZM1.60256 21.3131V23.1393L1.86966 23.3972C2.01944 23.3972 23.1303 23.3972 23.1303 23.3972L23.3974 23.1393V21.3131H16.2448L15.8992 22.1529L15.6678 22.6491H9.33219L9.09108 22.1529L8.74546 21.3131H1.60256Z" fill="#028673"/>
<path d="M20.0918 3.11138L12.8101 0.0621795C12.6122 -0.0207265 12.3893 -0.0207265 12.1913 0.0621795L4.90967 3.11138V4.59017L6.83835 5.39781V10.1289C6.78387 10.4707 6.95566 10.8123 7.26859 10.9703C10.5337 12.6193 14.4727 12.6193 17.7378 10.9703C18.0593 10.808 18.1631 10.4473 18.1631 10.101C18.1631 9.7547 18.1631 5.39775 18.1631 5.39775L20.0918 4.59012L20.0918 3.11138ZM12.5007 1.67057L17.7073 3.8508L12.5007 6.03098L7.29423 3.85075L12.5007 1.67057ZM16.5606 9.7547C13.9843 10.8951 11.0166 10.8945 8.44092 9.75245V6.06885L12.1913 7.63931C12.3879 7.72168 12.6136 7.72168 12.8101 7.63931L16.5606 6.06885V9.7547Z" fill="#13EAC0"/>
<path d="M23.2907 18.374H21.6881V8.9371C21.6881 8.77855 21.5553 8.70179 21.424 8.70179H19.6582V7.09863H23.2907V8.9371V18.374Z" fill="#028673"/>
<path d="M3.31156 18.374H1.70899V8.9371L1.70898 7.09863H5.34147V8.70179H3.58164C3.4474 8.70179 3.31156 8.77855 3.31156 8.9371V18.374Z" fill="#028673"/>
<path d="M19.1766 13.5107H9.24072V15.1139H19.1766V13.5107Z" fill="#13EAC0"/>
<path d="M7.63899 13.5107H5.82275V15.1139H7.63899V13.5107Z" fill="#13EAC0"/>
<path d="M19.1766 16.6641H9.24072V18.2672H19.1766V16.6641Z" fill="#13EAC0"/>
<path d="M7.63899 16.6641H5.82275V18.2672H7.63899V16.6641Z" fill="#13EAC0"/>
</svg>
