<svg width="80" height="80" viewBox="0 0 80 80" fill="none" xmlns="http://www.w3.org/2000/svg">
<path d="M40 16C37.791 16 36 14.209 36 12V4C36 1.79102 37.791 0 40 0C42.209 0 44 1.79102 44 4V12C44 14.209 42.209 16 40 16Z" fill="#00FFCE"/>
<path d="M40 80C37.791 80 36 78.209 36 76V68C36 65.791 37.791 64 40 64C42.209 64 44 65.791 44 68V76C44 78.209 42.209 80 40 80Z" fill="#00FFCE" fill-opacity="0.4"/>
<path d="M76 44H68C65.791 44 64 42.209 64 40C64 37.791 65.791 36 68 36H76C78.209 36 80 37.791 80 40C80 42.209 78.209 44 76 44Z" fill="#00FFCE" fill-opacity="0.25"/>
<path d="M12 44H4C1.79102 44 0 42.209 0 40C0 37.791 1.79102 36 4 36H12C14.209 36 16 37.791 16 40C16 42.209 14.209 44 12 44Z" fill="#00FFCE" fill-opacity="0.7"/>
<path d="M26.0039 19.7513C24.6211 19.7513 23.2774 19.0345 22.5352 17.7513L18.5352 10.8216C17.4317 8.90753 18.0879 6.46222 20 5.35675C21.918 4.24933 24.3555 4.90948 25.4649 6.82159L29.4649 13.7513C30.5684 15.6653 29.9121 18.1107 28 19.2161C27.3692 19.5794 26.6817 19.7513 26.0039 19.7513Z" fill="#00FFCE" fill-opacity="0.9"/>
<path d="M58.0039 75.1775C56.6211 75.1775 55.2774 74.4607 54.5352 73.1775L50.5352 66.2478C49.4317 64.3337 50.0879 61.8884 52 60.783C53.918 59.6755 56.3575 60.3337 57.4649 62.2478L61.4649 69.1775C62.5684 71.0916 61.9121 73.5369 60 74.6423C59.3692 75.0056 58.6817 75.1775 58.0039 75.1775Z" fill="#00FFCE" fill-opacity="0.35"/>
<path d="M64.252 30.0002C62.8692 30.0002 61.5254 29.2834 60.7832 28.0002C59.6797 26.0861 60.336 23.6408 62.2481 22.5354L69.1778 18.5354C71.0918 17.426 73.5352 18.0881 74.6426 20.0002C75.7461 21.9143 75.0899 24.3596 73.1778 25.465L66.2481 29.465C65.6172 29.8283 64.9297 30.0002 64.252 30.0002Z" fill="#00FFCE" fill-opacity="0.2"/>
<path d="M8.82621 61.9998C7.44339 61.9998 6.09964 61.283 5.35746 59.9998C4.25394 58.0858 4.91019 55.6404 6.8223 54.535L13.752 50.535C15.6641 49.4276 18.1094 50.0877 19.2168 51.9998C20.3203 53.9139 19.6641 56.3592 17.752 57.4647L10.8223 61.4647C10.1914 61.8279 9.50394 61.9998 8.82621 61.9998Z" fill="#00FFCE" fill-opacity="0.6"/>
<path d="M15.7481 30.0002C15.0703 30.0002 14.3828 29.8283 13.752 29.465L6.8223 25.465C4.91019 24.3596 4.25394 21.9143 5.35746 20.0002C6.46292 18.0881 8.90042 17.426 10.8223 18.5354L17.752 22.5354C19.6641 23.6408 20.3203 26.0861 19.2168 28.0002C18.4746 29.2834 17.1309 30.0002 15.7481 30.0002Z" fill="#00FFCE" fill-opacity="0.8"/>
<path d="M71.1739 61.9998C70.4961 61.9998 69.8086 61.8279 69.1778 61.4647L62.2481 57.4647C60.336 56.3592 59.6797 53.9139 60.7832 51.9998C61.8887 50.0877 64.3282 49.4276 66.2481 50.535L73.1778 54.535C75.0899 55.6404 75.7461 58.0858 74.6426 59.9998C73.9004 61.283 72.5567 61.9998 71.1739 61.9998Z" fill="#00FFCE" fill-opacity="0.3"/>
<path d="M53.9961 19.7513C53.3184 19.7513 52.6309 19.5794 52 19.2161C50.0879 18.1107 49.4317 15.6653 50.5352 13.7513L54.5352 6.82159C55.6387 4.90948 58.0801 4.24933 60 5.35675C61.9121 6.46222 62.5684 8.90753 61.4649 10.8216L57.4649 17.7513C56.7227 19.0345 55.3789 19.7513 53.9961 19.7513Z" fill="#00FFCE" fill-opacity="0.15"/>
<path d="M21.9961 75.1775C21.3184 75.1775 20.6309 75.0056 20 74.6423C18.0879 73.5369 17.4317 71.0916 18.5352 69.1775L22.5352 62.2478C23.6407 60.3337 26.0801 59.6755 28 60.783C29.9121 61.8884 30.5684 64.3337 29.4649 66.2478L25.4649 73.1775C24.7227 74.4607 23.3789 75.1775 21.9961 75.1775Z" fill="#00FFCE" fill-opacity="0.5"/>
</svg>
