<?xml version="1.0" encoding="UTF-8" standalone="no"?>
<!DOCTYPE svg PUBLIC "-//W3C//DTD SVG 1.1//EN" "http://www.w3.org/Graphics/SVG/1.1/DTD/svg11.dtd">
<svg version="1.1" xmlns="http://www.w3.org/2000/svg" xmlns:xlink="http://www.w3.org/1999/xlink" preserveAspectRatio="xMidYMid meet" viewBox="0 0 16 16" width="16" height="16"><defs><path d="M8.98 0.87L9.6 0.94L10.29 1.03L11.04 1.16L11.86 1.31L12.74 1.49L13.69 1.7L13.93 2.24L14.12 2.85L14.27 3.53L14.37 4.27L14.41 5.08L14.41 5.95L14.36 6.89L14.27 7.9L14.06 8.93L13.71 9.93L13.19 10.91L12.51 11.86L11.68 12.78L10.69 13.68L9.54 14.55L8.23 15.4L6.91 14.56L5.75 13.69L4.74 12.8L3.9 11.87L3.21 10.92L2.68 9.94L2.31 8.93L2.09 7.9L1.98 6.89L1.92 5.94L1.91 5.06L1.95 4.25L2.04 3.51L2.17 2.84L2.36 2.23L2.59 1.7L3.44 1.5L4.23 1.32L4.97 1.17L5.66 1.05L6.3 0.95L6.89 0.88L7.43 0.84L7.92 0.82L8.42 0.83L8.98 0.87ZM10.8 10.72L10.53 11.03L10.31 11.24L10.06 11.46L9.69 11.79L9.2 12.21L8.59 12.73L9.14 12.4L9.64 12.07L10.09 11.77L10.5 11.48L10.85 11.17L11.13 10.8L11.34 10.35L11.48 9.84L11.12 10.32L10.8 10.72ZM7.68 3.96L7.38 4.07L7.07 4.23L6.79 4.48L6.57 4.85L6.43 5.35L6.42 5.88L6.52 6.31L6.7 6.65L6.94 6.92L7.21 7.13L7.56 7.32L7.98 7.54L8.4 7.76L8.72 8L8.84 8.24L8.81 8.43L8.71 8.56L8.56 8.62L8.38 8.66L8.17 8.68L7.98 8.66L7.71 8.6L7.34 8.5L6.89 8.34L6.36 8.14L6.33 9.63L6.72 9.77L7.1 9.89L7.48 9.96L7.84 10L8.2 10.01L8.76 9.94L9.35 9.76L9.86 9.43L10.24 8.92L10.38 8.2L10.23 7.46L9.84 6.93L9.37 6.56L8.96 6.35L8.76 6.27L8.62 6.21L8.36 6.08L8.09 5.9L7.93 5.67L7.96 5.41L8.13 5.27L8.4 5.21L8.78 5.24L9.26 5.35L9.85 5.55L10.38 4.33L10.22 4.25L10.07 4.19L9.91 4.13L9.77 4.07L9.62 4.02L9.33 3.96L8.92 3.91L8.46 3.89L8.03 3.9L7.68 3.96Z" id="d1ogaCizF3"></path></defs><g><g><g><use xlink:href="#d1ogaCizF3" opacity="1" fill="black" fill-opacity="1"></use></g></g></g></svg>