<svg width="88" height="100" viewBox="0 0 88 100" fill="none" xmlns="http://www.w3.org/2000/svg">
<path opacity="0.5" d="M44 93.3333C35.772 93.3357 27.716 90.9608 20.7876 86.4904C13.8593 82.02 8.34946 75.6418 4.91172 68.1123C1.47398 60.5828 0.252641 52.2181 1.39259 44.0105C2.53254 35.8029 5.98594 28.0969 11.3431 21.8066L12.2286 20.7658L13.4131 21.4404C13.6635 21.5819 13.9463 21.655 14.2334 21.6527C14.5204 21.6503 14.802 21.5726 15.0501 21.4271C15.2982 21.2816 15.5044 21.0735 15.6482 20.8232C15.792 20.5729 15.8685 20.2892 15.8701 20C15.8666 19.7155 15.7892 19.4369 15.6455 19.1919L14.9757 17.9988L16.0091 17.1069C24.2357 9.99889 34.8235 6.28146 45.6544 6.6983C56.4853 7.11514 66.7606 11.6355 74.4248 19.3551C82.089 27.0747 86.5769 37.4243 86.9908 48.3335C87.4046 59.2428 83.7139 69.9071 76.6569 78.1933L75.7714 79.2342L74.5869 78.5595C74.3366 78.4172 74.0537 78.3433 73.7663 78.3452C73.4788 78.3471 73.1969 78.4248 72.9485 78.5704C72.7001 78.7161 72.4938 78.9246 72.3502 79.1754C72.2066 79.4262 72.1307 79.7105 72.1299 80C72.1334 80.2845 72.2108 80.5631 72.3545 80.8081L73.0243 82.0011L71.991 82.893C64.1969 89.6266 54.2684 93.3298 44 93.3333ZM13.1141 24.8714C6.94975 32.5518 3.82521 42.2582 4.34244 52.1207C4.85966 61.9832 8.98207 71.304 15.9155 78.2876C22.8489 85.2711 32.1028 89.4234 41.8945 89.9443C51.6862 90.4653 61.3229 87.3182 68.9482 81.1092C68.8632 80.7457 68.8203 80.3735 68.8205 80C68.822 78.6743 69.3454 77.4034 70.2761 76.466C71.2067 75.5287 72.4685 75.0014 73.7846 75C74.1554 74.9998 74.525 75.0429 74.8859 75.1286C81.0503 67.4481 84.1748 57.7417 83.6576 47.8792C83.1404 38.0168 79.018 28.6959 72.0845 21.7124C65.1511 14.7288 55.8972 10.5766 46.1055 10.0556C36.3138 9.53466 26.6771 12.6818 19.0518 18.8908C19.1368 19.2543 19.1797 19.6265 19.1795 20C19.1781 21.3256 18.6546 22.5965 17.724 23.5339C16.7933 24.4713 15.5315 24.9985 14.2154 25C13.8446 25.0002 13.475 24.957 13.1141 24.8714Z" fill="#00B390"/>
<path d="M44 63.3334C41.3819 63.3334 38.8225 62.5514 36.6456 61.0863C34.4687 59.6212 32.772 57.5388 31.77 55.1025C30.7681 52.6661 30.506 49.9852 31.0168 47.3988C31.5275 44.8124 32.7883 42.4366 34.6396 40.5719C36.4909 38.7072 38.8496 37.4374 41.4175 36.9229C43.9853 36.4084 46.647 36.6725 49.0658 37.6816C51.4847 38.6908 53.5521 40.3998 55.0067 42.5924C56.4612 44.7851 57.2376 47.3629 57.2376 50C57.2336 53.535 55.8376 56.924 53.356 59.4237C50.8743 61.9233 47.5096 63.3293 44 63.3334ZM44 40C42.0364 40 40.1169 40.5865 38.4842 41.6853C36.8515 42.7841 35.579 44.3459 34.8275 46.1732C34.0761 48.0005 33.8795 50.0111 34.2626 51.9509C34.6456 53.8907 35.5912 55.6726 36.9797 57.0711C38.3682 58.4696 40.1372 59.422 42.0631 59.8079C43.989 60.1937 45.9852 59.9957 47.7994 59.2388C49.6135 58.4819 51.1641 57.2002 52.255 55.5557C53.3459 53.9112 53.9282 51.9778 53.9282 50C53.9253 47.3488 52.8784 44.8069 51.0171 42.9322C49.1559 41.0574 46.6322 40.0029 44 40Z" fill="#00B390"/>
<path d="M44 51.6667C43.6728 51.6666 43.3529 51.5688 43.0809 51.3857C42.8088 51.2025 42.5968 50.9423 42.4716 50.6378C42.3464 50.3333 42.3136 49.9982 42.3774 49.675C42.4412 49.3517 42.5988 49.0548 42.8301 48.8217L72.0782 19.362C72.3885 19.0495 72.8093 18.8739 73.2481 18.8739C73.6869 18.8739 74.1078 19.0495 74.418 19.362C74.7283 19.6745 74.9026 20.0984 74.9026 20.5404C74.9026 20.9824 74.7283 21.4062 74.418 21.7188L45.1699 51.1784C45.0164 51.3334 44.8341 51.4563 44.6333 51.5401C44.4325 51.6239 44.2173 51.6669 44 51.6667Z" fill="#00B390"/>
<path opacity="0.75" d="M44 80C36.7043 80.002 29.6621 77.3044 24.2115 72.4197C18.7609 67.5351 15.2817 60.8038 14.4351 53.505L14.2332 51.7602L15.9735 51.6487C16.3922 51.6261 16.7864 51.4426 17.075 51.1361C17.3635 50.8297 17.5245 50.4235 17.5248 50.0011C17.5251 49.5788 17.3647 49.1723 17.0766 48.8654C16.7885 48.5585 16.3946 48.3745 15.9759 48.3512L14.2372 48.2381L14.4392 46.4949C15.1958 39.79 18.1867 33.5415 22.9236 28.7695C27.6605 23.9975 33.8636 20.9838 40.5202 20.2205L42.2524 20.0171L42.3631 21.77C42.3854 22.1921 42.5676 22.5896 42.8721 22.8804C43.1767 23.1713 43.5804 23.3334 44 23.3334C44.4197 23.3334 44.8234 23.1713 45.1279 22.8804C45.4325 22.5896 45.6147 22.1921 45.637 21.77L45.7477 20.0171L47.4799 20.2205C55.025 21.1127 61.9463 24.8759 66.8269 30.7398C71.7075 36.6037 74.1784 44.1248 73.7337 51.7635C73.289 59.4023 69.9624 66.581 64.4349 71.8302C58.9074 77.0794 51.5969 80.0021 44 80ZM17.9239 54.537C18.7481 59.3516 20.87 63.8455 24.0578 67.5279C27.2457 71.2103 31.3769 73.9395 36.0002 75.4175C40.6235 76.8954 45.5612 77.0653 50.2738 75.9086C54.9865 74.7518 59.293 72.3129 62.7229 68.8582C66.1528 65.4035 68.5742 61.0659 69.7226 56.3192C70.8711 51.5724 70.7024 46.599 69.2351 41.9423C67.7677 37.2855 65.0581 33.1245 61.4021 29.9136C57.7462 26.7027 53.2845 24.5654 48.5044 23.7353C48.1135 24.6089 47.4804 25.3502 46.6814 25.8702C45.8823 26.3901 44.9511 26.6667 43.9998 26.6666C43.0485 26.6665 42.1174 26.3898 41.3184 25.8697C40.5194 25.3495 39.8865 24.6081 39.4957 23.7345C34.1047 24.6504 29.131 27.2352 25.2657 31.1296C21.4005 35.024 18.8357 40.0345 17.928 45.4647C18.7945 45.8591 19.5296 46.4971 20.0451 47.3019C20.5606 48.1068 20.8346 49.0443 20.8342 50.0021C20.8338 50.9599 20.5589 51.8973 20.0427 52.7016C19.5265 53.506 18.7908 54.1433 17.9239 54.537Z" fill="#00B390"/>
<path d="M15.8701 53.3333C17.6978 53.3333 19.1795 51.8409 19.1795 50C19.1795 48.159 17.6978 46.6666 15.8701 46.6666C14.0424 46.6666 12.5607 48.159 12.5607 50C12.5607 51.8409 14.0424 53.3333 15.8701 53.3333Z" fill="#00FFCE"/>
<path d="M44 25C45.8277 25 47.3094 23.5077 47.3094 21.6667C47.3094 19.8258 45.8277 18.3334 44 18.3334C42.1723 18.3334 40.6906 19.8258 40.6906 21.6667C40.6906 23.5077 42.1723 25 44 25Z" fill="#00FFCE"/>
<path d="M14.2154 23.3334C16.0431 23.3334 17.5248 21.841 17.5248 20C17.5248 18.1591 16.0431 16.6667 14.2154 16.6667C12.3877 16.6667 10.906 18.1591 10.906 20C10.906 21.841 12.3877 23.3334 14.2154 23.3334Z" fill="#00FFCE"/>
<path d="M73.7846 83.3334C75.6124 83.3334 77.094 81.841 77.094 80C77.094 78.1591 75.6124 76.6667 73.7846 76.6667C71.9569 76.6667 70.4752 78.1591 70.4752 80C70.4752 81.841 71.9569 83.3334 73.7846 83.3334Z" fill="#00FFCE"/>
<path d="M15.8701 55C14.8883 55 13.9285 54.7068 13.1122 54.1573C12.2958 53.6079 11.6596 52.827 11.2838 51.9134C10.9081 50.9998 10.8098 49.9945 11.0014 49.0245C11.1929 48.0546 11.6657 47.1637 12.3599 46.4645C13.0542 45.7652 13.9387 45.289 14.9016 45.0961C15.8646 44.9031 16.8627 45.0022 17.7698 45.3806C18.6768 45.759 19.4521 46.3999 19.9976 47.2222C20.543 48.0444 20.8342 49.0111 20.8342 50C20.8327 51.3256 20.3093 52.5966 19.3786 53.5339C18.448 54.4713 17.1862 54.9986 15.8701 55ZM15.8701 48.3333C15.5428 48.3333 15.2229 48.4311 14.9508 48.6142C14.6787 48.7974 14.4666 49.0577 14.3413 49.3622C14.2161 49.6667 14.1833 50.0019 14.2472 50.3252C14.311 50.6485 14.4686 50.9454 14.7 51.1785C14.9314 51.4116 15.2263 51.5703 15.5473 51.6346C15.8682 51.699 16.201 51.6659 16.5033 51.5398C16.8057 51.4137 17.0641 51.2 17.2459 50.926C17.4277 50.6519 17.5248 50.3296 17.5248 50C17.5242 49.5582 17.3497 49.1346 17.0395 48.8221C16.7293 48.5097 16.3088 48.3339 15.8701 48.3333Z" fill="#00B390"/>
<path d="M44 26.6667C43.0182 26.6667 42.0584 26.3734 41.2421 25.824C40.4257 25.2746 39.7895 24.4937 39.4138 23.5801C39.038 22.6665 38.9397 21.6611 39.1313 20.6912C39.3228 19.7213 39.7956 18.8304 40.4898 18.1312C41.1841 17.4319 42.0686 16.9557 43.0315 16.7628C43.9945 16.5698 44.9926 16.6689 45.8997 17.0473C46.8067 17.4257 47.582 18.0666 48.1275 18.8888C48.673 19.7111 48.9641 20.6778 48.9641 21.6667C48.9627 22.9923 48.4392 24.2633 47.5086 25.2006C46.5779 26.138 45.3161 26.6652 44 26.6667ZM44 20C43.6727 20 43.3528 20.0978 43.0807 20.2809C42.8086 20.464 42.5965 20.7243 42.4712 21.0289C42.346 21.3334 42.3132 21.6685 42.3771 21.9918C42.4409 22.3151 42.5985 22.6121 42.8299 22.8452C43.0614 23.0783 43.3562 23.237 43.6772 23.3013C43.9982 23.3656 44.3309 23.3326 44.6332 23.2065C44.9356 23.0803 45.194 22.8667 45.3758 22.5926C45.5577 22.3186 45.6547 21.9963 45.6547 21.6667C45.6541 21.2248 45.4796 20.8012 45.1694 20.4888C44.8592 20.1764 44.4387 20.0006 44 20Z" fill="#00B390"/>
<path d="M14.2154 25C13.2336 25 12.2738 24.7068 11.4575 24.1574C10.6411 23.6079 10.0049 22.8271 9.62915 21.9134C9.25343 20.9998 9.15513 19.9945 9.34667 19.0246C9.53821 18.0546 10.011 17.1637 10.7052 16.4645C11.3995 15.7652 12.284 15.289 13.2469 15.0961C14.2099 14.9031 15.208 15.0022 16.1151 15.3806C17.0221 15.759 17.7974 16.3999 18.3429 17.2222C18.8883 18.0444 19.1795 19.0111 19.1795 20C19.1781 21.3256 18.6546 22.5966 17.724 23.5339C16.7933 24.4713 15.5315 24.9986 14.2154 25ZM14.2154 18.3333C13.8881 18.3333 13.5682 18.4311 13.2961 18.6142C13.024 18.7974 12.8119 19.0577 12.6866 19.3622C12.5614 19.6667 12.5286 20.0019 12.5925 20.3252C12.6563 20.6485 12.8139 20.9454 13.0453 21.1785C13.2768 21.4116 13.5716 21.5703 13.8926 21.6346C14.2136 21.699 14.5463 21.6659 14.8486 21.5398C15.151 21.4137 15.4094 21.2 15.5912 20.926C15.773 20.6519 15.8701 20.3296 15.8701 20C15.8695 19.5582 15.695 19.1346 15.3848 18.8221C15.0746 18.5097 14.6541 18.3339 14.2154 18.3333Z" fill="#00B390"/>
<path d="M73.7846 85C72.8028 85 71.843 84.7068 71.0267 84.1573C70.2104 83.6079 69.5741 82.827 69.1984 81.9134C68.8226 80.9998 68.7243 79.9945 68.9159 79.0246C69.1074 78.0546 69.5802 77.1637 70.2745 76.4645C70.9687 75.7652 71.8532 75.289 72.8162 75.0961C73.7791 74.9031 74.7772 75.0022 75.6843 75.3806C76.5913 75.759 77.3666 76.3999 77.9121 77.2222C78.4576 78.0444 78.7487 79.0111 78.7487 80C78.7473 81.3256 78.2238 82.5966 77.2932 83.5339C76.3625 84.4713 75.1007 84.9986 73.7846 85ZM73.7846 78.3333C73.4573 78.3333 73.1374 78.4311 72.8653 78.6142C72.5932 78.7974 72.3811 79.0577 72.2559 79.3622C72.1306 79.6667 72.0978 80.0019 72.1617 80.3252C72.2255 80.6485 72.3831 80.9454 72.6145 81.1785C72.846 81.4116 73.1408 81.5703 73.4618 81.6346C73.7828 81.699 74.1155 81.6659 74.4178 81.5398C74.7202 81.4137 74.9786 81.2 75.1604 80.9259C75.3423 80.6519 75.4393 80.3296 75.4393 80C75.4387 79.5582 75.2642 79.1346 74.954 78.8221C74.6438 78.5097 74.2233 78.3339 73.7846 78.3333Z" fill="#00B390"/>
</svg>
