<svg width="19" height="17" viewBox="0 0 19 17" fill="none" xmlns="http://www.w3.org/2000/svg">
<path d="M10.2816 0.45942L18.8791 15.6216C18.9583 15.7613 19 15.9198 19 16.0811C19 16.2424 18.9583 16.4008 18.8791 16.5405C18.7999 16.6802 18.6859 16.7962 18.5488 16.8769C18.4116 16.9575 18.2559 17 18.0975 17H0.902506C0.744081 17 0.588448 16.9575 0.45125 16.8769C0.314051 16.7962 0.200121 16.6802 0.12091 16.5405C0.0416995 16.4008 -1.00617e-06 16.2424 0 16.0811C1.0062e-06 15.9198 0.0417035 15.7613 0.120916 15.6216L8.71841 0.45942C8.79763 0.319737 8.91156 0.203745 9.04876 0.1231C9.18595 0.0424555 9.34158 0 9.5 0C9.65842 0 9.81405 0.0424555 9.95125 0.1231C10.0884 0.203745 10.2024 0.319737 10.2816 0.45942ZM2.46569 15.1622H16.5343L9.5 2.75672L2.46569 15.1622ZM8.59747 12.4054H10.4025V14.2432H8.59747V12.4054ZM8.59747 5.97295H10.4025V10.5676H8.59747V5.97295Z" fill="#FF5769"/>
</svg>
